# ProBuilder 5.2.2
# https://unity3d.com/unity/features/worldbuilding/probuilder
# 01.04.2024 17:56:52

mtllib ./Arch.mtl
o Arch

g Arch
v -2 -2 0.25
v -1.77 -2 0.25
v -2 -2 -0.25
v -1.77 -2 -0.25
v -1.96578 -1.477895 -0.25
v -1.96578 -1.477895 0.25
v -1.737747 -1.507916 -0.25
v -1.737747 -1.507916 0.25
v -1.863703 -0.9647233 -0.25
v -1.863703 -0.9647233 0.25
v -1.64154 -1.024252 -0.25
v -1.64154 -1.024252 0.25
v -1.695518 -0.4692657 -0.25
v -1.695518 -0.4692657 0.25
v -1.483026 -0.5572829 -0.25
v -1.483026 -0.5572829 0.25
v -1.464102 4.768372E-07 -0.25
v -1.464102 4.768372E-07 0.25
v -1.264916 -0.1149995 -0.25
v -1.264916 -0.1149995 0.25
v -1.173413 0.4350462 -0.25
v -1.173413 0.4350462 0.25
v -0.9909421 0.2950311 -0.25
v -0.9909421 0.2950311 0.25
v -0.8284272 0.8284276 -0.25
v -0.8284272 0.8284276 0.25
v -0.6657926 0.6657929 -0.25
v -0.6657926 0.6657929 0.25
v -0.4350458 1.173414 -0.25
v -0.4350458 1.173414 0.25
v -0.2950307 0.9909425 -0.25
v -0.2950307 0.9909425 0.25
v 0 1.464102 -0.25
v 0 1.464102 0.25
v 0.115 1.264916 -0.25
v 0.115 1.264916 0.25
v 0.4692662 1.695518 -0.25
v 0.4692662 1.695518 0.25
v 0.5572834 1.483026 -0.25
v 0.5572834 1.483026 0.25
v 0.9647236 1.863704 -0.25
v 0.9647236 1.863704 0.25
v 1.024252 1.641541 -0.25
v 1.024252 1.641541 0.25
v 1.477895 1.96578 -0.25
v 1.477895 1.96578 0.25
v 1.507916 1.737747 -0.25
v 1.507916 1.737747 0.25
v 2 2 -0.25
v 2 2 0.25
v 2 1.77 -0.25
v 2 1.77 0.25

vt -2 0.25
vt -1.77 0.25
vt -2 -0.25
vt -1.77 -0.25
vt -0.25 -2.126523
vt -0.25 -1.603298
vt 0.25 -2.126523
vt 0.25 -1.603298
vt 0.25 -1.618341
vt 0.25 -2.111481
vt -0.25 -1.618341
vt -0.25 -2.111481
vt -0.25 -1.833003
vt -0.25 -1.309777
vt 0.25 -1.833003
vt 0.25 -1.309777
vt 0.25 -1.32482
vt 0.25 -1.81796
vt -0.25 -1.32482
vt -0.25 -1.81796
vt -0.25 -1.512594
vt -0.25 -0.9893683
vt 0.25 -1.512594
vt 0.25 -0.9893683
vt 0.25 -1.004411
vt 0.25 -1.497551
vt -0.25 -1.004411
vt -0.25 -1.497551
vt -0.25 -1.17078
vt -0.25 -0.6475552
vt 0.25 -1.17078
vt 0.25 -0.6475552
vt 0.25 -0.662598
vt 0.25 -1.155738
vt -0.25 -0.662598
vt -0.25 -1.155738
vt -0.25 -0.813411
vt -0.25 -0.290186
vt 0.25 -0.813411
vt 0.25 -0.290186
vt 0.25 -0.3052286
vt 0.25 -0.7983682
vt -0.25 -0.3052286
vt -0.25 -0.7983682
vt -0.25 -0.4466002
vt -0.25 0.07662477
vt 0.25 -0.4466002
vt 0.25 0.07662477
vt 0.25 0.06158198
vt 0.25 -0.4315575
vt -0.25 0.06158198
vt -0.25 -0.4315575
vt 0.07662427 -0.25
vt -0.4466007 -0.25
vt 0.07662427 0.25
vt -0.4466007 0.25
vt 0.4315581 -0.25
vt -0.06158147 -0.25
vt 0.4315581 0.25
vt -0.06158147 0.25
vt -0.2901867 -0.25
vt -0.813412 -0.25
vt -0.2901867 0.25
vt -0.813412 0.25
vt 0.7983692 -0.25
vt 0.3052294 -0.25
vt 0.7983692 0.25
vt 0.3052294 0.25
vt -0.6475553 -0.25
vt -1.17078 -0.25
vt -0.6475553 0.25
vt -1.17078 0.25
vt 1.155738 -0.25
vt 0.6625982 -0.25
vt 1.155738 0.25
vt 0.6625982 0.25
vt -0.9893691 -0.25
vt -1.512594 -0.25
vt -0.9893691 0.25
vt -1.512594 0.25
vt 1.497551 -0.25
vt 1.004412 -0.25
vt 1.497551 0.25
vt 1.004412 0.25
vt -1.309777 -0.25
vt -1.833002 -0.25
vt -1.309777 0.25
vt -1.833002 0.25
vt 1.817959 -0.25
vt 1.32482 -0.25
vt 1.817959 0.25
vt 1.32482 0.25
vt -1.603299 -0.25
vt -2.126525 -0.25
vt -1.603299 0.25
vt -2.126525 0.25
vt 2.111482 -0.25
vt 1.618342 -0.25
vt 2.111482 0.25
vt 1.618342 0.25
vt -0.25 1.77
vt -0.25 2
vt 0.25 1.77
vt 0.25 2
vt -2 -2
vt -1.96578 -1.477895
vt -1.77 -2
vt -1.737747 -1.507916
vt 1.96578 -1.477895
vt 2 -2
vt 1.737747 -1.507916
vt 1.77 -2
vt -1.863703 -0.9647233
vt -1.64154 -1.024252
vt 1.863703 -0.9647233
vt 1.64154 -1.024252
vt -1.695518 -0.4692657
vt -1.483026 -0.5572829
vt 1.695518 -0.4692657
vt 1.483026 -0.5572829
vt -1.464102 4.768372E-07
vt -1.264916 -0.1149995
vt 1.464102 4.768372E-07
vt 1.264916 -0.1149995
vt -1.173413 0.4350462
vt -0.9909421 0.2950311
vt 1.173413 0.4350462
vt 0.9909421 0.2950311
vt -0.8284272 0.8284276
vt -0.6657926 0.6657929
vt 0.8284272 0.8284276
vt 0.6657926 0.6657929
vt -0.4350458 1.173414
vt -0.2950307 0.9909425
vt 0.4350458 1.173414
vt 0.2950307 0.9909425
vt 0 1.464102
vt 0.115 1.264916
vt -0.115 1.264916
vt 0.4692662 1.695518
vt 0.5572834 1.483026
vt -0.4692662 1.695518
vt -0.5572834 1.483026
vt 0.9647236 1.863704
vt 1.024252 1.641541
vt -0.9647236 1.863704
vt -1.024252 1.641541
vt 1.477895 1.96578
vt 1.507916 1.737747
vt -1.477895 1.96578
vt -1.507916 1.737747
vt 2 2
vt 2 1.77
vt -2 2
vt -2 1.77

vn 0 -1 0
vn -0.9978589 0.06540272 0
vn -0.9914449 0.1305261 0
vn 0.9914449 -0.1305263 0
vn 0.9978589 -0.06540295 0
vn -0.9659258 0.2588192 0
vn 0.9659258 -0.2588191 0
vn -0.9238796 0.3826835 0
vn 0.9238796 -0.3826834 0
vn -0.8660253 0.5000001 0
vn 0.8660253 -0.5000001 0
vn -0.7933533 0.6087615 0
vn 0.7933533 -0.6087615 0
vn -0.7071068 0.7071068 0
vn 0.7071068 -0.7071068 0
vn -0.6087615 0.7933533 0
vn 0.6087616 -0.7933532 0
vn -0.4999999 0.8660254 0
vn 0.5 -0.8660254 0
vn -0.3826833 0.9238796 0
vn 0.3826833 -0.9238796 0
vn -0.2588191 0.9659258 0
vn 0.258819 -0.9659258 0
vn -0.1305263 0.9914449 0
vn 0.1950901 -0.9807853 0
vn -0.06540336 0.9978589 0
vn 0.0654034 -0.9978589 0
vn 1 0 0
vn 0 0 1
vn 0 0 -1

usemtl ProBuilderDefault
f 3/3/1 4/4/1 2/2/1 1/1/1
f 1/7/2 6/8/3 5/6/3 3/5/2
f 8/11/4 2/12/5 4/10/5 7/9/4
f 6/15/3 10/16/6 9/14/6 5/13/3
f 12/19/7 8/20/4 7/18/4 11/17/7
f 10/23/6 14/24/8 13/22/8 9/21/6
f 16/27/9 12/28/7 11/26/7 15/25/9
f 14/31/8 18/32/10 17/30/10 13/29/8
f 20/35/11 16/36/9 15/34/9 19/33/11
f 18/39/10 22/40/12 21/38/12 17/37/10
f 24/43/13 20/44/11 19/42/11 23/41/13
f 22/47/12 26/48/14 25/46/14 21/45/12
f 28/51/15 24/52/13 23/50/13 27/49/15
f 26/55/14 30/56/16 29/54/16 25/53/14
f 32/59/17 28/60/15 27/58/15 31/57/17
f 30/63/16 34/64/18 33/62/18 29/61/16
f 36/67/19 32/68/17 31/66/17 35/65/19
f 34/71/18 38/72/20 37/70/20 33/69/18
f 40/75/21 36/76/19 35/74/19 39/73/21
f 38/79/20 42/80/22 41/78/22 37/77/20
f 44/83/23 40/84/21 39/82/21 43/81/23
f 42/87/22 46/88/24 45/86/24 41/85/22
f 48/91/25 44/92/23 43/90/23 47/89/25
f 46/95/24 50/96/26 49/94/26 45/93/24
f 52/99/27 48/100/27 47/98/27 51/97/27
f 51/103/28 49/104/28 50/102/28 52/101/28
f 2/107/29 8/108/29 6/106/29 1/105/29
f 7/111/30 4/112/30 3/110/30 5/109/30
f 8/108/29 12/114/29 10/113/29 6/106/29
f 11/116/30 7/111/30 5/109/30 9/115/30
f 12/114/29 16/118/29 14/117/29 10/113/29
f 15/120/30 11/116/30 9/115/30 13/119/30
f 16/118/29 20/122/29 18/121/29 14/117/29
f 19/124/30 15/120/30 13/119/30 17/123/30
f 20/122/29 24/126/29 22/125/29 18/121/29
f 23/128/30 19/124/30 17/123/30 21/127/30
f 24/126/29 28/130/29 26/129/29 22/125/29
f 27/132/30 23/128/30 21/127/30 25/131/30
f 28/130/29 32/134/29 30/133/29 26/129/29
f 31/136/30 27/132/30 25/131/30 29/135/30
f 32/134/29 36/138/29 34/137/29 30/133/29
f 35/139/30 31/136/30 29/135/30 33/137/30
f 36/138/29 40/141/29 38/140/29 34/137/29
f 39/143/30 35/139/30 33/137/30 37/142/30
f 40/141/29 44/145/29 42/144/29 38/140/29
f 43/147/30 39/143/30 37/142/30 41/146/30
f 44/145/29 48/149/29 46/148/29 42/144/29
f 47/151/30 43/147/30 41/146/30 45/150/30
f 48/149/29 52/153/29 50/152/29 46/148/29
f 51/155/30 47/151/30 45/150/30 49/154/30

